<mxfile host="" modified="2020-06-17T15:06:26.570Z" agent="5.0 (Macintosh; Intel Mac OS X 10_15_5) AppleWebKit/537.36 (KHTML, like Gecko) Code/1.45.0 Chrome/78.0.3904.130 Electron/7.2.4 Safari/537.36" etag="D1swusJvEse49UZSWtCc" version="13.1.3">
    <diagram id="6hGFLwfOUW9BJ-s0fimq" name="ログイン">
        <mxGraphModel dx="2136" dy="677" grid="1" gridSize="10" guides="1" tooltips="1" connect="1" arrows="1" fold="1" page="1" pageScale="1" pageWidth="827" pageHeight="1169" math="0" shadow="0">
            <root>
                <mxCell id="0"/>
                <mxCell id="1" parent="0"/>
                <mxCell id="2" value="Actor" style="shape=umlActor;verticalLabelPosition=bottom;labelBackgroundColor=#ffffff;verticalAlign=top;html=1;" vertex="1" parent="1">
                    <mxGeometry x="-190" y="240" width="30" height="60" as="geometry"/>
                </mxCell>
                <mxCell id="4" value="&lt;div style=&quot;color: rgb(212 , 212 , 212) ; background-color: rgb(30 , 30 , 30) ; font-family: &amp;#34;menlo&amp;#34; , &amp;#34;monaco&amp;#34; , &amp;#34;courier new&amp;#34; , monospace ; font-weight: normal ; font-size: 12px ; line-height: 18px&quot;&gt;&lt;div&gt;&lt;span style=&quot;color: #569cd6 ; font-weight: bold&quot;&gt;# ログインユースケース&lt;/span&gt;&lt;/div&gt;&lt;div&gt;&lt;span style=&quot;color: #569cd6 ; font-weight: bold&quot;&gt;## 基本コース&lt;/span&gt;&lt;/div&gt;&lt;div&gt;&lt;span style=&quot;color: #6796e6&quot;&gt;-&lt;/span&gt;&lt;span style=&quot;color: #d4d4d4&quot;&gt; ユーザはログイン画面にアクセスする。ユーザはアカウント名とパスワードを入力して、「ログイン」ボタンをクリックする。&lt;/span&gt;&lt;/div&gt;&lt;div&gt;&lt;span style=&quot;color: #6796e6&quot;&gt;-&lt;/span&gt;&lt;span style=&quot;color: #d4d4d4&quot;&gt; システムはユーザ認証する。アカウント名とパスワードが正しければ、名言登録画面に遷移する。&lt;/span&gt;&lt;/div&gt;&lt;br&gt;&lt;div&gt;&lt;span style=&quot;color: #569cd6 ; font-weight: bold&quot;&gt;## 代替コース&lt;/span&gt;&lt;/div&gt;&lt;div&gt;&lt;span style=&quot;color: #569cd6 ; font-weight: bold&quot;&gt;### ユーザが存在しない&lt;/span&gt;&lt;/div&gt;&lt;div&gt;&lt;span style=&quot;color: #6796e6&quot;&gt;-&lt;/span&gt;&lt;span style=&quot;color: #d4d4d4&quot;&gt; システムはユーザが入力したアカウント名をDBで検索し、一致するアカウント名が存在しなかった場合は、「ユーザが存在しません」とエラーメッセージを表示する。&lt;/span&gt;&lt;/div&gt;&lt;br&gt;&lt;div&gt;&lt;span style=&quot;color: #569cd6 ; font-weight: bold&quot;&gt;### パスワードが誤っている&lt;/span&gt;&lt;/div&gt;&lt;div&gt;&lt;span style=&quot;color: #6796e6&quot;&gt;-&lt;/span&gt;&lt;span style=&quot;color: #d4d4d4&quot;&gt; システムは、ユーザが入力したアカウントが存在した場合はパスワードを照合する。パスワードが誤っていた場合は、「パスワードが違います」とエラーメッセージを表示する。&lt;/span&gt;&lt;/div&gt;&lt;/div&gt;" style="shape=note;whiteSpace=wrap;html=1;backgroundOutline=1;darkOpacity=0.05;align=left;" vertex="1" parent="1">
                    <mxGeometry x="-220" y="20" width="1010" height="200" as="geometry"/>
                </mxCell>
                <mxCell id="7" style="edgeStyle=orthogonalEdgeStyle;rounded=0;orthogonalLoop=1;jettySize=auto;html=1;exitX=0.5;exitY=1;exitDx=0;exitDy=0;exitPerimeter=0;" edge="1" parent="1" source="4" target="4">
                    <mxGeometry relative="1" as="geometry"/>
                </mxCell>
                <mxCell id="8" value="ログイン&lt;br&gt;ページ" style="shape=umlBoundary;whiteSpace=wrap;html=1;" vertex="1" parent="1">
                    <mxGeometry x="-120" y="240" width="100" height="80" as="geometry"/>
                </mxCell>
            </root>
        </mxGraphModel>
    </diagram>
</mxfile>